# xmcd
#
# Track frame offsets:
#	150
#	19413
#	36991
#	51643
#	66168
#	83500
#	99418
#	115394
#	135683
#	154549
#	170038
#	185528
#	201890
#	215918
#	237484
#
# Disc length: 3400 seconds
#
# Revision: 3
# Processed by: cddbd v1.5.2PL0 Copyright (c) Steve Scherf et al.
# Submitted via: audiograbber 1.83.01
#
DISCID=e10d460f
DTITLE=Music Maestro - MM6373
DYEAR=1900
DGENRE=Country
TTITLE0=Tim McGraw - Red Ragtop
TTITLE1=Dixie Chicks - Landslide
TTITLE2=George Strait - She'll Leave You With a Smile
TTITLE3=Toby Keith - Who's Your Daddy
TTITLE4=Lonestar - Unusually Unusual
TTITLE5=Terri Clark - I Just Wanna Be Mad
TTITLE6=Steve Holly - I'm Not Breakin'
TTITLE7=Kellie Coffey - at the End of the Day
TTITLE8=Andy Griggs - Practice Life
TTITLE9=Tanya Tucker - a Memory Like I'm Gonna Be
TTITLE10=Trace Adkins - Chrome
TTITLE11=Brooks and Dunn - Every River
TTITLE12=Trick Pony - on a Mission
TTITLE13=Kenny Chesney - a Lot of Things Different
TTITLE14=Faith Hill - Cry
EXTD=MediaType: Karaoke CD+G Producer: Music Maestro
EXTT0=
EXTT1=
EXTT2=
EXTT3=
EXTT4=
EXTT5=
EXTT6=
EXTT7=
EXTT8=
EXTT9=
EXTT10=
EXTT11=
EXTT12=
EXTT13=
EXTT14=
PLAYORDER=
